<?xml version="1.0" encoding="UTF-8"?>
<svg version="1.1" xmlns="http://www.w3.org/2000/svg" width="1000" height="1000">
<path d="M0 0 C1.32 0.66 2.64 1.32 4 2 C4 2.99 4 3.98 4 5 C4.66 5.33 5.32 5.66 6 6 C6 6.66 6 7.32 6 8 C7.17749808 9.17749808 8.37774564 10.3341596 9.625 11.4375 C11 13 11 13 11 16 C11.99 16.66 12.98 17.32 14 18 C13.67 18.66 13.34 19.32 13 20 C13.66 20 14.32 20 15 20 C17.595403 22.12351154 18.87723904 23.26343426 19.4375 26.625 C19.7159375 27.800625 19.7159375 27.800625 20 29 C21.2065625 29.433125 21.2065625 29.433125 22.4375 29.875 C23.7059375 30.431875 23.7059375 30.431875 25 31 C26.3125 34.625 26.3125 34.625 27 38 C27.66 38 28.32 38 29 38 C29.67154933 39.28913487 30.33708859 40.58140204 31 41.875 C31.37125 42.59429687 31.7425 43.31359375 32.125 44.0546875 C33 46 33 46 33 48 C34.485 48.495 34.485 48.495 36 49 C37.21875 50.390625 37.21875 50.390625 38.5 52.25 C48.68851914 66.27478307 60.81512191 79.1558319 74.05859375 90.33984375 C76.53444997 92.45702462 78.91661268 94.66781829 81.3125 96.875 C86.71153033 101.79742628 92.31383324 106.41567885 98 111 C99.89643485 112.56176988 101.79227306 114.12426454 103.6875 115.6875 C107.57196336 118.87990379 111.52437848 121.91594559 115.63671875 124.80859375 C116.08660156 125.20175781 116.53648437 125.59492188 117 126 C117 126.66 117 127.32 117 128 C117.99 128 118.98 128 120 128 C120 128.66 120 129.32 120 130 C120.515625 130.21785156 121.03125 130.43570313 121.5625 130.66015625 C125.00608969 132.55302686 127.94087416 134.9831595 131 137.4375 C132.22888267 138.41572146 133.458042 139.39359549 134.6875 140.37109375 C135.25984375 140.82983887 135.8321875 141.28858398 136.421875 141.76123047 C137.73013551 142.7881664 139.07928458 143.76276362 140.4375 144.72265625 C140.953125 145.14417969 141.46875 145.56570313 142 146 C142 146.66 142 147.32 142 148 C142.61875 148.309375 143.2375 148.61875 143.875 148.9375 C145.25 149.625 146.625 150.3125 148 151 C148 151.66 148 152.32 148 153 C148.598125 153.28875 149.19625 153.5775 149.8125 153.875 C152 155 152 155 155 157 C155 157.66 155 158.32 155 159 C155.57621094 159.2578125 156.15242187 159.515625 156.74609375 159.78125 C159.19393785 161.1048676 161.00637727 162.6300772 163.0625 164.5 C165.33432007 166.55815561 167.43707257 168.29138171 170 170 C170 170.66 170 171.32 170 172 C170.54140625 172.2165625 171.0828125 172.433125 171.640625 172.65625 C174.81645344 174.46499997 177.20728081 176.91723799 179.75 179.5 C180.25660156 179.99886719 180.76320313 180.49773437 181.28515625 181.01171875 C185 184.74658861 185 184.74658861 185 187 C185.66 187 186.32 187 187 187 C187 182.32637398 185.22831799 178.21426725 183.75 173.8125 C183.44964844 172.89146484 183.14929688 171.97042969 182.83984375 171.02148438 C179.69201135 161.11530352 179.69201135 161.11530352 173.75 152.8125 C172 151 172 151 171.8125 148.4375 C171.874375 147.633125 171.93625 146.82875 172 146 C171.67 145.01 171.34 144.02 171 143 C171.92203709 140.63477442 172.91698965 138.29598193 174 136 C177 136 177 136 180 137 C180 137.66 180 138.32 180 139 C180.66 139 181.32 139 182 139 C182 139.99 182 140.98 182 142 C183.65 142 185.3 142 187 142 C187 142.66 187 143.32 187 144 C187.58007812 144.25394531 188.16015625 144.50789062 188.7578125 144.76953125 C193.23122698 146.7404911 197.64844022 148.76843088 202 151 C202 151.66 202 152.32 202 153 C202.680625 153.2475 203.36125 153.495 204.0625 153.75 C207.56865083 155.24197908 210.71620368 157.06835511 214 159 C214 159.66 214 160.32 214 161 C215.32 161.33 216.64 161.66 218 162 C218 162.99 218 163.98 218 165 C218.99 165 219.98 165 221 165 C221.33 165.99 221.66 166.98 222 168 C223.59066286 169.61244386 223.59066286 169.61244386 225.5625 171.1875 C228.64222869 173.80499093 231.61332892 176.48243032 234.5 179.3125 C235.1703125 179.96863281 235.840625 180.62476563 236.53125 181.30078125 C238 183 238 183 238 185 C238.99 185.33 239.98 185.66 241 186 C242.60546875 187.55859375 242.60546875 187.55859375 244.1875 189.4375 C244.71730469 190.05496094 245.24710937 190.67242187 245.79296875 191.30859375 C247 193 247 193 247 195 C247.66 195 248.32 195 249 195 C250.5078125 196.4609375 250.5078125 196.4609375 252.125 198.375 C252.66382813 199.00148438 253.20265625 199.62796875 253.7578125 200.2734375 C255 202 255 202 255 204 C255.66 204 256.32 204 257 204 C260 207.46153846 260 207.46153846 260 210 C260.66 210 261.32 210 262 210 C263.5078125 211.4609375 263.5078125 211.4609375 265.125 213.375 C265.66382813 214.00148438 266.20265625 214.62796875 266.7578125 215.2734375 C268 217 268 217 268 219 C268.66 219 269.32 219 270 219 C271.60140303 220.90412572 273.08929438 222.81247113 274.5625 224.8125 C275.4607952 226.00759746 276.3605636 227.20158884 277.26171875 228.39453125 C277.71724121 228.99861816 278.17276367 229.60270508 278.64208984 230.22509766 C281.33491083 233.74484029 284.16968794 237.14633817 286.9921875 240.5625 C287.65476562 241.366875 288.31734375 242.17125 289 243 C289.74507813 243.886875 290.49015625 244.77375 291.2578125 245.6875 C293 248 293 248 293 250 C293.99 250.33 294.98 250.66 296 251 C297.71875 253.14453125 297.71875 253.14453125 299.5 255.8125 C302.02268572 259.56852605 302.02268572 259.56852605 304.71875 263.19921875 C306 265 306 265 306 267 C306.66 267 307.32 267 308 267 C309.710781 269.17573193 311.30540984 271.3506959 312.875 273.625 C313.30941406 274.24246094 313.74382812 274.85992187 314.19140625 275.49609375 C315.47227142 277.32315368 316.7373016 279.16035325 318 281 C318.39993164 281.57073242 318.79986328 282.14146484 319.21191406 282.72949219 C322 286.77037445 322 286.77037445 322 289 C322.66 289 323.32 289 324 289 C325.42483954 290.9929329 326.72187634 292.97748844 328 295.0625 C328.80854167 296.35371353 329.61848638 297.64404935 330.4296875 298.93359375 C330.85088867 299.60503418 331.27208984 300.27647461 331.70605469 300.96826172 C333.7830178 304.22948569 335.95865629 307.42279539 338.125 310.625 C341.77796604 316.05826213 345.1910588 321.58074424 348.4375 327.26953125 C349.8333829 329.70883663 351.279076 332.10556974 352.75 334.5 C360.83946816 347.95360748 368.16406955 361.87318153 375 376 C375.53238281 377.0828125 376.06476563 378.165625 376.61328125 379.28125 C380.45318785 387.29841933 383.41709404 395.50852411 386.27978516 403.90869141 C387.77226526 408.2424489 389.35719248 412.54346997 390.921875 416.8515625 C392.57327946 421.6741422 394 425.87344541 394 431 C397.29547408 429.35226296 397.72230691 425.69120934 398.875 422.375 C400.79540993 416.85763178 403.03865931 412.03851831 406 407 C406.60223087 405.5576199 407.16943495 404.09970369 407.6875 402.625 C409.83517786 397.06630437 412.61233576 391.91488046 415.43359375 386.67797852 C418.12027083 381.6860052 420.68709052 376.65002084 423.1875 371.5625 C426.17922356 365.5156936 429.41355059 359.71844452 433 354 C433.60457031 353.00871094 434.20914062 352.01742188 434.83203125 350.99609375 C442.26627131 338.81097838 450.0017508 326.82273954 458 315 C458.50789063 314.24074219 459.01578125 313.48148438 459.5390625 312.69921875 C460.63885853 311.09454559 461.8104985 309.53935488 463 308 C463.66 308 464.32 308 465 308 C465.35578125 306.69095703 465.35578125 306.69095703 465.71875 305.35546875 C467.13936615 301.63501364 468.91296649 299.32370622 471.5 296.3125 C473.82482355 293.58385158 476.01048926 290.9842661 478 288 C478.66 288 479.32 288 480 288 C480.40798828 287.13181641 480.40798828 287.13181641 480.82421875 286.24609375 C483.83577503 280.49312078 488.15782449 275.30415601 493 271 C493.66 271 494.32 271 495 271 C495.26167969 270.41605469 495.52335938 269.83210938 495.79296875 269.23046875 C498.2559346 264.67916293 501.97264189 260.64702919 506.9375 259.0625 C507.9584375 259.0315625 507.9584375 259.0315625 509 259 C509 258.01 509 257.02 509 256 C514.34883721 251 514.34883721 251 517 251 C517.33 250.01 517.66 249.02 518 248 C520.0625 247.3125 520.0625 247.3125 522 247 C522 246.34 522 245.68 522 245 C522.99 244.67 523.98 244.34 525 244 C525.33 243.34 525.66 242.68 526 242 C527.65 242 529.3 242 531 242 C531.33 241.34 531.66 240.68 532 240 C532.99 240 533.98 240 535 240 C535 239.34 535 238.68 535 238 C536.4540625 237.814375 536.4540625 237.814375 537.9375 237.625 C538.948125 237.41875 539.95875 237.2125 541 237 C541.33 236.34 541.66 235.68 542 235 C542.66 235.33 543.32 235.66 544 236 C544 235.34 544 234.68 544 234 C547.75 232.875 547.75 232.875 550 234 C550 233.34 550 232.68 550 232 C552.84749927 230.40591463 555.06639826 229.7306289 558.3125 229.5 C562.40510676 229.11944766 566.05745262 228.19684474 570 227 C572.35673158 226.49749029 574.71589176 226.01862328 577.08203125 225.5625 C579.21679658 225.10288992 579.21679658 225.10288992 581 223 C581 224.65 581 226.3 581 228 C580.34 228 579.68 228 579 228 C578.71125 229.258125 578.4225 230.51625 578.125 231.8125 C577.42696461 234.8539399 576.79553415 236.30669878 575 239 C575.66 239.66 576.32 240.32 577 241 C575.515 241.99 575.515 241.99 574 243 C572.01839615 244.98160385 570.92652384 247.80071886 569.625 250.25 C567.50863297 254.23057118 565.35571015 258.15571227 563 262 C569.19773399 261.44663089 575.22078754 260.42899717 581.3291626 259.24679565 C586.49481159 258.25795165 591.67060874 257.38350003 596.8671875 256.57421875 C597.68777649 256.44557938 598.50836548 256.31694 599.3538208 256.18440247 C607.33060477 254.93883329 615.31435683 253.74076327 623.29983521 252.5524292 C666.23567642 246.30024906 666.23567642 246.30024906 709 239 C709.99032227 238.81614746 710.98064453 238.63229492 712.00097656 238.44287109 C733.41076449 234.42728412 754.50556629 229.45252135 775 222 C775.680625 221.7525 776.36125 221.505 777.0625 221.25 C784.40892468 218.53747396 791.31496115 215.5684207 797.8515625 211.19921875 C800.23387988 209.8694525 802.31500066 209.40039464 805 209 C805 208.34 805 207.68 805 207 C806.63466992 205.94850962 808.30914758 204.95853841 810 204 C811.78108792 202.78574006 813.55207776 201.55653172 815.3125 200.3125 C816.19550781 199.68988281 817.07851563 199.06726563 817.98828125 198.42578125 C818.65214844 197.95527344 819.31601562 197.48476563 820 197 C820.66 197.33 821.32 197.66 822 198 C821.67 198.66 821.34 199.32 821 200 C821.66 200.33 822.32 200.66 823 201 C822.26861959 205.88100189 821.15925104 210.60024152 819.9375 215.375 C819.75123047 216.11105469 819.56496094 216.84710938 819.37304688 217.60546875 C818.91752543 219.40419444 818.4590645 221.20217529 818 223 C817.34 223 816.68 223 816 223 C815.896875 224.175625 815.79375 225.35125 815.6875 226.5625 C814.38485132 236.73386642 807.97059976 245.74389432 802.3125 254.0625 C801.91981934 254.64725098 801.52713867 255.23200195 801.12255859 255.83447266 C800.13470922 257.2611772 799.07295518 258.63614538 798 260 C797.34 260 796.68 260 796 260 C795.93425781 260.52851563 795.86851562 261.05703125 795.80078125 261.6015625 C794.64788591 265.05462466 792.44874277 267.583208 790.1875 270.375 C789.70555176 270.97989258 789.22360352 271.58478516 788.72705078 272.20800781 C784.53796618 277.42653338 780.19925182 282.51616391 775.79760742 287.55615234 C773.11284993 290.57804546 773.11284993 290.57804546 771 294 C770.34 294 769.68 294 769 294 C768.7525 294.556875 768.505 295.11375 768.25 295.6875 C766.77075182 298.42410913 765.06532561 300.67650869 763 303 C762.34 303 761.68 303 761 303 C760.72978027 303.5969165 760.45956055 304.19383301 760.18115234 304.80883789 C759.00892606 306.98344122 757.8671068 308.35149082 756.1015625 310.05859375 C755.25851562 310.88520508 755.25851562 310.88520508 754.3984375 311.72851562 C753.52058594 312.57446289 753.52058594 312.57446289 752.625 313.4375 C748.80871585 317.13878452 745.30760063 320.82646101 742 325 C740.78165483 326.13899916 739.53170276 327.24529708 738.25 328.3125 C734.49314676 331.50652878 731.06387124 334.92697183 727.6640625 338.49609375 C726 340 726 340 724 340 C723.67 340.99 723.34 341.98 723 343 C721.546875 344.2109375 721.546875 344.2109375 719.75 345.375 C716.45098458 347.62371664 713.75813454 350.09670048 711 353 C709.37163262 354.7041054 707.71230248 356.38025441 706 358 C705.34 358 704.68 358 704 358 C704 358.66 704 359.32 704 360 C702.61401367 361.27758789 702.61401367 361.27758789 700.66796875 362.72265625 C699.95705078 363.25681152 699.24613281 363.7909668 698.51367188 364.34130859 C697.74603516 364.90930176 696.97839844 365.47729492 696.1875 366.0625 C694.61739465 367.2420335 693.04838441 368.42302613 691.48046875 369.60546875 C690.71138184 370.18474121 689.94229492 370.76401367 689.14990234 371.36083984 C685.48880651 374.15218636 681.95417737 377.08607925 678.40625 380.01953125 C671.94886277 385.33429639 665.2614854 390.31061659 658.48046875 395.203125 C656.8979042 396.34954971 655.33520725 397.52427705 653.80078125 398.734375 C652 400 652 400 650 400 C650 400.66 650 401.32 650 402 C644.58823529 406 644.58823529 406 642 406 C642 406.66 642 407.32 642 408 C639.61573112 409.78227064 637.23767714 411.43700301 634.75 413.0625 C633.72712891 413.75182617 633.72712891 413.75182617 632.68359375 414.45507812 C629.45032764 416.59280067 626.83842965 418.21611772 623 419 C623 419.66 623 420.32 623 421 C621.35599941 422.03684128 619.68244364 423.02677795 618 424 C615.63102794 425.68113642 613.32182255 427.4420036 611 429.1875 C605.15718979 433.53209853 599.21003805 437.43647717 592.96484375 441.18359375 C590.31416095 442.80752986 587.77963315 444.50805679 585.25 446.3125 C580.14544832 449.95269893 574.88949558 453.33428476 569.6171875 456.72387695 C564.00668864 460.33532528 558.44378424 464.01248938 552.90942383 467.73950195 C549.6568827 469.92355338 546.37260077 472.00733359 543 474 C541.76614893 474.75263204 540.53314745 475.50665782 539.30078125 476.26171875 C537.9714022 477.07039147 536.64197418 477.87898369 535.3125 478.6875 C534.63638672 479.10322266 533.96027344 479.51894531 533.26367188 479.94726562 C528.22590825 483 528.22590825 483 526 483 C526 483.66 526 484.32 526 485 C524.13256509 486.2831085 522.20211328 487.47481119 520.25 488.625 C519.05746021 489.33795111 517.86608038 490.05284554 516.67578125 490.76953125 C516.06557129 491.13643066 515.45536133 491.50333008 514.82666016 491.88134766 C509.3351883 495.24434205 503.85938949 498.76594436 498.78515625 502.73046875 C497 504 497 504 495 504 C495 504.66 495 505.32 495 506 C492.95162033 507.75237104 490.90318009 509.3862676 488.75 511 C488.16347656 511.45117188 487.57695313 511.90234375 486.97265625 512.3671875 C484.09930084 514.54964621 481.31676616 516.55507217 478 518 C478 518.66 478 519.32 478 520 C476.68 520.33 475.36 520.66 474 521 C474 521.66 474 522.32 474 523 C472.5390625 524.5078125 472.5390625 524.5078125 470.625 526.125 C469.99851562 526.66382813 469.37203125 527.20265625 468.7265625 527.7578125 C467 529 467 529 465 529 C464.7525 529.58265625 464.505 530.1653125 464.25 530.765625 C462.81474554 533.33114236 461.22336987 534.83724798 459 536.75 C458.29875 537.36359375 457.5975 537.9771875 456.875 538.609375 C455 540 455 540 453 540 C452.59974609 540.91072266 452.59974609 540.91072266 452.19140625 541.83984375 C450.67166001 544.59531809 448.48990138 546.11338375 446.078125 548.07421875 C442.60355296 551.29407592 439.81315984 555.0673496 436.91796875 558.8046875 C436.28503906 559.52914062 435.65210938 560.25359375 435 561 C434.34 561 433.68 561 433 561 C432.76023437 561.54785156 432.52046875 562.09570312 432.2734375 562.66015625 C430.69518217 565.5600794 428.74058323 567.90372008 426.625 570.4375 C425.08305928 572.29143876 423.54138706 574.14560089 422 576 C421.26523437 576.87785156 420.53046875 577.75570312 419.7734375 578.66015625 C417.83638403 580.95581443 417.83638403 580.95581443 417 584 C416.34 584 415.68 584 415 584 C414.9175 584.61875 414.835 585.2375 414.75 585.875 C414 588 414 588 411.9375 589.25 C411.298125 589.4975 410.65875 589.745 410 590 C410.33 591.32 410.66 592.64 411 594 C410.01 594.33 409.02 594.66 408 595 C407.67 595.99 407.34 596.98 407 598 C405.37347684 599.70586575 403.70993434 601.3777546 402 603 C402.33 603.66 402.66 604.32 403 605 C402.01 605 401.02 605 400 605 C400 605.99 400 606.98 400 608 C399.01 608.33 398.02 608.66 397 609 C396.855625 610.0725 396.71125 611.145 396.5625 612.25 C395.57142857 618.85714286 395.57142857 618.85714286 394 622 C391.4375 622.625 391.4375 622.625 389 623 C388.67 623.99 388.34 624.98 388 626 C388.33 626.66 388.66 627.32 389 628 C388.01 628.33 387.02 628.66 386 629 C384.96986723 630.64821244 383.96885372 632.31503702 383 634 C380.29120665 635.35439668 377.99066732 635.06501451 375 635 C375 633.68 375 632.36 375 631 C374.195625 630.71125 373.39125 630.4225 372.5625 630.125 C370 629 370 629 369 627 C369.9375 624.875 369.9375 624.875 371 623 C369.83984375 622.67515625 369.83984375 622.67515625 368.65625 622.34375 C364.4710007 620.22650623 363.96249708 616.75534922 362.40625 612.53125 C361.18969588 609.78415455 361.18969588 609.78415455 358.34375 608.65625 C357.18359375 608.33140625 357.18359375 608.33140625 356 608 C356.061875 607.21625 356.12375 606.4325 356.1875 605.625 C356.125625 604.75875 356.06375 603.8925 356 603 C355.01 602.34 354.02 601.68 353 601 C351.8125 598.875 351.8125 598.875 351 597 C350.34 597 349.68 597 349 597 C348.67 596.01 348.34 595.02 348 594 C346.0359139 591.05387084 343.92395278 588.36888324 341.6875 585.625 C340.92824219 584.68914063 340.16898437 583.75328125 339.38671875 582.7890625 C336.30003885 579.18204213 332.94573961 575.91867552 329.54296875 572.61328125 C328.76566406 571.85402344 327.98835938 571.09476563 327.1875 570.3125 C326.39730469 569.54550781 325.60710937 568.77851562 324.79296875 567.98828125 C323 566 323 566 323 564 C322.401875 563.731875 321.80375 563.46375 321.1875 563.1875 C319.00152146 562.00082594 317.58667406 560.90400887 316 559 C316 558.34 316 557.68 316 557 C315.01 556.67 314.02 556.34 313 556 C313 555.34 313 554.68 313 554 C311.68 553.34 310.36 552.68 309 552 C309 551.34 309 550.68 309 550 C308.42894531 549.75894531 307.85789062 549.51789062 307.26953125 549.26953125 C304.56190157 547.75493633 302.81808239 545.93918122 300.6875 543.6875 C298.00411008 540.9336105 295.42389292 538.42380412 292.25 536.25 C289.09375262 534.06490566 286.70607093 531.70607093 284 529 C281.88596769 527.40061975 279.74529341 525.85298744 277.57421875 524.33203125 C277.05472656 523.89246094 276.53523438 523.45289063 276 523 C276 522.34 276 521.68 276 521 C275.2575 520.731875 274.515 520.46375 273.75 520.1875 C271.10938051 519.04723249 269.14447156 517.90619694 267 516 C267 515.34 267 514.68 267 514 C266.17435547 513.62681641 266.17435547 513.62681641 265.33203125 513.24609375 C262.55223928 511.76074427 260.19174765 509.9779204 257.6875 508.0625 C256.1096875 506.86753906 256.1096875 506.86753906 254.5 505.6484375 C253.93667969 505.22143555 253.37335938 504.79443359 252.79296875 504.35449219 C249.60524872 501.94633985 246.39980584 499.56272027 243.1875 497.1875 C242.57801514 496.73189697 241.96853027 496.27629395 241.34057617 495.80688477 C237.37313576 492.87939546 233.32240281 490.3742776 229 488 C229 487.34 229 486.68 229 486 C228.44828125 485.73703125 227.8965625 485.4740625 227.328125 485.203125 C220.33734183 481.59043839 213.81503728 477.04411853 207.65625 472.1640625 C205.88888712 470.80363569 205.88888712 470.80363569 203 470 C203 469.34 203 468.68 203 468 C202.071875 467.731875 201.14375 467.46375 200.1875 467.1875 C197.01851573 466.00689802 196.23313656 465.32246203 194 463 C192.35374453 462.05928259 190.70563577 461.12161237 189.046875 460.203125 C186.83863865 458.90515401 184.77579691 457.48341091 182.6875 456 C177.89238615 452.5958352 173.02127964 449.31840169 168.125 446.0625 C167.34278076 445.54212158 166.56056152 445.02174316 165.75463867 444.4855957 C162.89590894 442.58524267 160.03594991 440.68675331 157.17480469 438.79003906 C151.31025636 434.90230477 145.49597413 430.96320047 139.75 426.90234375 C137.68097082 425.4710693 135.60288151 424.07128092 133.5 422.69140625 C126.70627242 418.23274717 120.11225883 413.66393199 113.73242188 408.62768555 C109.05985209 404.96542078 104.18640535 401.76192214 99.16796875 398.59375 C98.45253906 398.0678125 97.73710937 397.541875 97 397 C97 396.34 97 395.68 97 395 C96.443125 394.731875 95.88625 394.46375 95.3125 394.1875 C92.78774666 392.89100504 90.36285516 391.57523677 88 390 C88 389.34 88 388.68 88 388 C87.26394531 387.74605469 86.52789062 387.49210937 85.76953125 387.23046875 C82.83330485 385.92593939 81.03072137 384.49293817 78.6875 382.3125 C77.90632813 381.59578125 77.12515625 380.8790625 76.3203125 380.140625 C75.55460937 379.43421875 74.78890625 378.7278125 74 378 C72.69163205 376.84945075 71.37930885 375.70337893 70.0625 374.5625 C66.12665169 371.13044027 62.25762093 367.62688301 58.39453125 364.11328125 C56.71576414 362.63169396 54.97698345 361.21668607 53.19921875 359.85546875 C52.47347656 359.24316406 51.74773437 358.63085938 51 358 C51 357.34 51 356.68 51 356 C49.68 355.34 48.36 354.68 47 354 C47 353.34 47 352.68 47 352 C46.01 351.67 45.02 351.34 44 351 C44 350.34 44 349.68 44 349 C43.34 349 42.68 349 42 349 C42 348.34 42 347.68 42 347 C40.68 346.34 39.36 345.68 38 345 C38 344.34 38 343.68 38 343 C37.34 343 36.68 343 36 343 C34.4921875 341.5390625 34.4921875 341.5390625 32.875 339.625 C32.33617187 338.99851562 31.79734375 338.37203125 31.2421875 337.7265625 C30 336 30 336 30 334 C29.34 334 28.68 334 28 334 C24 329.52941176 24 329.52941176 24 327 C23.34 327 22.68 327 22 327 C20.4921875 325.3203125 20.4921875 325.3203125 18.875 323.125 C18.33617187 322.40570312 17.79734375 321.68640625 17.2421875 320.9453125 C16 319 16 319 16 317 C15.34 317 14.68 317 14 317 C12.40625 314.9375 12.40625 314.9375 10.5 312 C9.79101562 310.90945313 9.08203125 309.81890625 8.3515625 308.6953125 C7.56598454 307.46464032 6.78220616 306.23281801 6 305 C5.58588867 304.34741211 5.17177734 303.69482422 4.74511719 303.02246094 C2.17260375 298.95534653 -0.37127656 294.87130624 -2.8984375 290.77587891 C-3.81680947 289.29532976 -4.75030486 287.82417502 -5.6875 286.35546875 C-12.4948154 275.49706076 -17.93178593 263.41192707 -21.9375 251.25 C-22.28683594 250.19296875 -22.63617188 249.1359375 -22.99609375 248.046875 C-23.49302734 246.53867187 -23.49302734 246.53867187 -24 245 C-24.49925478 243.4997518 -24.99917906 241.9997261 -25.5 240.5 C-25.73976563 239.76910156 -25.97953125 239.03820312 -26.2265625 238.28515625 C-26.75604406 236.7207789 -27.31492575 235.16613138 -27.8984375 233.62109375 C-44.84919176 187.04042104 -42.28434549 129.16384438 -33.36181641 80.98681641 C-32.9997567 78.998664 -32.67425985 77.00722369 -32.35546875 75.01171875 C-30.67211319 64.83632361 -27.882794 55.1017415 -24.73339844 45.29345703 C-24.08735035 43.27315885 -23.46738915 41.24455812 -22.8515625 39.21484375 C-18.12756542 24.62405845 -9.49742994 11.90619841 0 0 Z M392 617 C392 617.66 392 618.32 392 619 C392.66 618.67 393.32 618.34 394 618 C393.34 617.67 392.68 617.34 392 617 Z " fill="#588057" transform="translate(107,210)"/>
<path d="M0 0 C0.82951172 0.12890625 1.65902344 0.2578125 2.51367188 0.390625 C14.38788978 2.2975626 25.68188874 5.07276156 36.96240234 9.24853516 C38.84768533 9.94382644 40.74569255 10.60435015 42.64453125 11.26171875 C54.82685549 15.73439126 65.84456204 22.44709971 77 29 C77.96470215 29.55171875 78.9294043 30.1034375 79.92333984 30.671875 C80.83937988 31.20296875 81.75541992 31.7340625 82.69921875 32.28125 C83.52639404 32.75626953 84.35356934 33.23128906 85.20581055 33.72070312 C85.79789307 34.14287109 86.38997559 34.56503906 87 35 C87 35.66 87 36.32 87 37 C87.680625 37.2475 88.36125 37.495 89.0625 37.75 C95.78271984 40.60966802 101.36978607 44.65105901 107.21484375 48.9765625 C109.74568435 50.81523772 112.3141883 52.54722437 114.9375 54.25 C117.98722566 56.25053305 120.5078141 58.31610749 123 61 C123.99 61.66 124.98 62.32 126 63 C126 63.66 126 64.32 126 65 C126.56203125 65.24492187 127.1240625 65.48984375 127.703125 65.7421875 C130.41865854 67.22926539 132.46391438 69.04062782 134.75 71.125 C135.54921875 71.84945312 136.3484375 72.57390625 137.171875 73.3203125 C138.07679688 74.15175781 138.07679688 74.15175781 139 75 C142.54052691 72.0375183 145.9493361 69.10076316 149.125 65.75 C157.27499803 57.49036074 167.15122452 51.027892 177 45 C177.98226563 44.36449219 178.96453125 43.72898438 179.9765625 43.07421875 C191.23232437 35.88226172 203.1189558 29.95667692 215.8984375 25.99609375 C219.71334157 24.77090416 223.4434218 23.36206555 227.1875 21.9375 C240.97708535 16.72212553 254.27741724 12.86834017 268.9375 10.9375 C271.32180252 10.61466622 273.70591953 10.29045929 276.08984375 9.96484375 C277.25644531 9.80717529 278.42304687 9.64950684 279.625 9.48706055 C282.72269366 9.04001925 285.79176719 8.51070604 288.87109375 7.953125 C296.24797198 6.70072435 303.66483792 6.24078093 311.125 5.8125 C311.85798309 5.76986023 312.59096619 5.72722046 313.34616089 5.68328857 C324.33721742 5.05987993 335.04647997 4.77480504 346 6 C347.81709473 6.19021729 347.81709473 6.19021729 349.67089844 6.38427734 C353.20950236 6.75706188 356.74502266 7.1527568 360.2795105 7.56268311 C361.69493895 7.72653837 363.11072611 7.88733022 364.52688599 8.04473877 C373.15570521 9.01973059 380.95618804 10.65005206 389 14 C392.31605954 15.14554784 395.58453765 16.20305879 399 17 C400.33333333 17.33333333 401.66666667 17.66666667 403 18 C403 18.66 403 19.32 403 20 C404.03125 20.0825 405.0625 20.165 406.125 20.25 C410.36497233 21.07063981 412.52800979 22.50922441 416 25 C417.12148437 25.42925781 417.12148437 25.42925781 418.265625 25.8671875 C421.6457733 27.26753465 424.58569041 29.17921968 427.625 31.1875 C428.86964359 31.9989251 430.11443703 32.81012038 431.359375 33.62109375 C431.97361328 34.02312012 432.58785156 34.42514648 433.22070312 34.83935547 C435.75984476 36.49565066 438.31635212 38.12404359 440.875 39.75 C441.74511719 40.30558594 442.61523438 40.86117187 443.51171875 41.43359375 C445.14911915 42.46435915 446.79746495 43.47797184 448.45703125 44.47265625 C450.33439851 45.60039175 452.17248532 46.79315068 454 48 C454 48.66 454 49.32 454 50 C454.8353125 50.37511719 454.8353125 50.37511719 455.6875 50.7578125 C468.12971893 57.44130172 479.08288183 70.29449045 488 81 C488.804375 81.94875 489.60875 82.8975 490.4375 83.875 C492 86 492 86 492 88 C492.66 88 493.32 88 494 88 C516.49441347 114.10253994 533.02962898 149.62962692 541 183 C541.31807617 184.31508545 541.31807617 184.31508545 541.64257812 185.65673828 C544.95065946 199.54643877 548.07713939 213.65207378 548 228 C548.165 228.7425 548.33 229.485 548.5 230.25 C549.91965342 238.05809379 549.2002601 245.69514328 545.5625 252.8125 C544.15404491 254.78433713 542.86741386 256.45735377 541 258 C540.34 258 539.68 258 539 258 C539 258.66 539 259.32 539 260 C538.113125 260.433125 537.22625 260.86625 536.3125 261.3125 C530.77141695 264.11233016 530.77141695 264.11233016 526 268 C524.08203125 268.74609375 524.08203125 268.74609375 521.8125 269.4375 C518.79595521 270.38625199 515.93495472 271.42842945 513.0625 272.75 C512.051875 273.1625 511.04125 273.575 510 274 C509.34 273.67 508.68 273.34 508 273 C507.67 273.66 507.34 274.32 507 275 C503.99083491 276.07470182 501.17106439 276.08808512 498 276 C497.67 276.66 497.34 277.32 497 278 C494.94628906 278.67016602 494.94628906 278.67016602 492.265625 279.25390625 C491.29882812 279.46853516 490.33203125 279.68316406 489.3359375 279.90429688 C488.31757812 280.12150391 487.29921875 280.33871094 486.25 280.5625 C485.24710938 280.78357422 484.24421875 281.00464844 483.2109375 281.23242188 C475.77608299 282.86434286 468.36806243 284.27263628 460.83984375 285.40234375 C458.22730894 285.95216194 456.30193586 286.68066506 454 288 C454 287.34 454 286.68 454 286 C452.02 286.33 450.04 286.66 448 287 C448 286.34 448 285.68 448 285 C446.6078125 285.4640625 446.6078125 285.4640625 445.1875 285.9375 C441.18952101 287.27015966 438.21345723 288.11387722 434 288 C434.41105809 283.49999565 434.84914155 279.01800663 435.51171875 274.546875 C438.41349932 254.54311109 436.98842009 235.76065303 433 216 C432.73582275 214.67452148 432.73582275 214.67452148 432.46630859 213.32226562 C431.97194172 210.87797389 431.46135335 208.43813083 430.9375 206 C430.78764648 205.30100586 430.63779297 204.60201172 430.48339844 203.88183594 C429.68370055 200.36282274 428.68574733 197.05386131 427.37890625 193.6875 C426 190 426 190 426 187 C425.34 187 424.68 187 424 187 C423.4121875 185.52273438 423.4121875 185.52273438 422.8125 184.015625 C420.94554365 179.66377605 418.53193338 175.74151851 416 171.75 C415.56171875 171.04359375 415.1234375 170.3371875 414.671875 169.609375 C412.65397669 166.40018733 410.76430713 163.6160917 408 161 C403.22020725 156.45336788 403.22020725 156.45336788 401.9375 153.8125 C401.16695781 151.87159478 401.16695781 151.87159478 399.33203125 151.21875 C396.07320891 149.51564686 393.49343649 147.100911 390.75 144.6875 C387.04047938 141.46916819 383.42496342 138.45420457 379.1875 135.9375 C377.6096875 134.9784375 377.6096875 134.9784375 376 134 C376 133.34 376 132.68 376 132 C375.01 132 374.02 132 373 132 C373 131.34 373 130.68 373 130 C371.989375 129.7525 370.97875 129.505 369.9375 129.25 C367.17606579 128.5737304 365.30204356 127.58823133 362.80859375 126.1171875 C358.76326278 123.74866371 354.57472898 122.30284173 350.125 120.875 C349.37347656 120.62363281 348.62195313 120.37226563 347.84765625 120.11328125 C340.31776592 117.64637035 333.0040147 115.8706658 325.0625 115.5 C321.01209398 115.26300816 317.24611407 114.92090352 313.3125 113.9375 C308.30304206 112.82521635 303.35929888 112.77761259 298.25 112.75 C297.43313721 112.740896 296.61627441 112.73179199 295.7746582 112.72241211 C291.05915385 112.74607414 287.46428253 113.36728286 283 115 C279.64270924 115.79742879 276.26062702 116.45970211 272.875 117.125 C271.98167969 117.30675781 271.08835937 117.48851562 270.16796875 117.67578125 C269.30558594 117.84722656 268.44320313 118.01867187 267.5546875 118.1953125 C266.77593262 118.35016113 265.99717773 118.50500977 265.19482422 118.66455078 C263 119 263 119 259 119 C259 119.66 259 120.32 259 121 C258.3709375 121.17015625 257.741875 121.3403125 257.09375 121.515625 C252.14982108 122.9154121 247.6810125 124.51617122 243.1484375 126.92578125 C240.73159454 128.13420273 238.26918073 129.08517078 235.75 130.0625 C226.42862241 133.86982324 217.73555408 139.0231007 209 144 C208.09121094 144.51433594 207.18242188 145.02867187 206.24609375 145.55859375 C203.48587284 147.32993552 201.019658 149.33896461 198.5 151.4375 C196.66712674 152.95888777 194.83380405 154.47973429 193 156 C192.1028125 156.75410156 191.205625 157.50820313 190.28125 158.28515625 C188 160 188 160 186 160 C185.34 161.65 184.68 163.3 184 165 C183.01 165 182.02 165 181 165 C180.731875 165.556875 180.46375 166.11375 180.1875 166.6875 C178.42337578 170.12289979 176.74206894 173.25793106 174 176 C173.67 176.66 173.34 177.32 173 178 C172.34 178 171.68 178 171 178 C171 178.99 171 179.98 171 181 C170.01 181 169.02 181 168 181 C167.79117187 181.64195312 167.58234375 182.28390625 167.3671875 182.9453125 C165.43708506 187.25771281 162.78884543 190.98463582 160.125 194.875 C154.86084901 202.59831641 150.25405529 210.2580689 146.34375 218.765625 C144.86776506 221.21987903 143.38038519 222.4466978 141 224 C140.34 223.67 139.68 223.34 139 223 C139 222.01 139 221.02 139 220 C138.01 219.67 137.02 219.34 136 219 C134.375 217 134.375 217 133 215 C132.67 214.67 132.34 214.34 132 214 C132 213.01 132 212.02 132 211 C131.01 210.67 130.02 210.34 129 210 C128.05078125 208.3046875 128.05078125 208.3046875 127 206 C123.60001553 200.61106214 120.17191898 195.20438472 116 190.375 C114 188 114 188 114 186 C113.01 185.67 112.02 185.34 111 185 C110.3125 182.9375 110.3125 182.9375 110 181 C109.34 181 108.68 181 108 181 C106.30859375 179.35546875 106.30859375 179.35546875 104.4375 177.1875 C103.81746094 176.47980469 103.19742187 175.77210938 102.55859375 175.04296875 C101 173 101 173 100 170 C99.34 170 98.68 170 98 170 C96.4921875 168.5390625 96.4921875 168.5390625 94.875 166.625 C94.33617187 165.99851562 93.79734375 165.37203125 93.2421875 164.7265625 C92 163 92 163 92 161 C91.195625 160.6596875 91.195625 160.6596875 90.375 160.3125 C87.17539839 158.54429911 84.70962777 156.46329797 82 154 C82 153.34 82 152.68 82 152 C81.43667969 151.73832031 80.87335938 151.47664062 80.29296875 151.20703125 C77.78781616 149.88830527 75.60280596 148.35083009 73.3125 146.6875 C63.41097353 139.74208143 53.43859397 135.72288818 42 132 C40.865625 131.62746094 39.73125 131.25492188 38.5625 130.87109375 C-5.73260002 117.29507151 -57.84122547 117.75420669 -100 138 C-103.13058936 139.70193456 -106.0869756 141.60349166 -109.00390625 143.65234375 C-111 145 -111 145 -114 146 C-114 146.66 -114 147.32 -114 148 C-114.58394531 148.24878906 -115.16789062 148.49757813 -115.76953125 148.75390625 C-118.31316284 150.17495437 -119.79407698 151.73192915 -121.6875 153.9375 C-122.28949219 154.62714844 -122.89148438 155.31679688 -123.51171875 156.02734375 C-125.1871876 158.03001971 -125.1871876 158.03001971 -126 161 C-126.99 161 -127.98 161 -129 161 C-129.33 161.99 -129.66 162.98 -130 164 C-132.0625 165.1875 -132.0625 165.1875 -134 166 C-134.35191406 165.54109375 -134.70382813 165.0821875 -135.06640625 164.609375 C-138.64544715 160.16127195 -141.89472477 157.55263762 -147 155 C-147 154.01 -147 153.02 -147 152 C-147.66 152 -148.32 152 -149 152 C-150.18543201 150.84843748 -151.36482981 149.68980052 -152.5078125 148.49609375 C-154.12172677 146.87795457 -155.81565803 145.41069505 -157.5625 143.9375 C-160.1726035 141.73593444 -162.5851144 139.4148856 -165 137 C-165.66 136.67 -166.32 136.34 -167 136 C-167 135.01 -167 134.02 -167 133 C-167.99 133 -168.98 133 -170 133 C-170 132.34 -170 131.68 -170 131 C-170.66 131 -171.32 131 -172 131 C-174 128 -174 128 -175 126 C-175.639375 125.71125 -176.27875 125.4225 -176.9375 125.125 C-179 124 -179 124 -179.875 122.1875 C-181.53687899 118.95606864 -184.18411052 117.24121816 -187 115 C-188.875 113.375 -188.875 113.375 -190 112 C-190 111.01 -190 110.02 -190 109 C-191.485 108.505 -191.485 108.505 -193 108 C-193 107.34 -193 106.68 -193 106 C-193.5775 105.79375 -194.155 105.5875 -194.75 105.375 C-197.80459709 103.50830178 -199.09416428 100.9858093 -201 98 C-201.66 97.67 -202.32 97.34 -203 97 C-203 96.34 -203 95.68 -203 95 C-203.66 95 -204.32 95 -205 95 C-205.33 93.68 -205.66 92.36 -206 91 C-206.66 91 -207.32 91 -208 91 C-211.18753597 86.11908555 -212.85757274 83.00300919 -212 77 C-211.05570585 74.29563095 -209.91227848 72.14220052 -208 70 C-204.625 68.375 -204.625 68.375 -201 67 C-198.95880212 65.38405168 -196.95927063 63.7143618 -195 62 C-188.51498638 57 -188.51498638 57 -186 57 C-186 56.34 -186 55.68 -186 55 C-184.21118264 53.99491199 -182.41885304 52.99607264 -180.625 52 C-179.62726563 51.443125 -178.62953125 50.88625 -177.6015625 50.3125 C-175 49 -175 49 -173 49 C-173 48.34 -173 47.68 -173 47 C-170.76043369 45.34677089 -168.52484235 43.8163584 -166.1875 42.3125 C-165.50913086 41.86986816 -164.83076172 41.42723633 -164.13183594 40.97119141 C-162.74990232 40.07127467 -161.36594417 39.17445924 -159.97998047 38.28076172 C-158.19799134 37.12807183 -156.42723761 35.96051101 -154.66015625 34.78515625 C-153.69980469 34.15480469 -152.73945313 33.52445313 -151.75 32.875 C-150.89921875 32.31554687 -150.0484375 31.75609375 -149.171875 31.1796875 C-147 30 -147 30 -144 30 C-143.67 29.34 -143.34 28.68 -143 28 C-141.515 28.495 -141.515 28.495 -140 29 C-139.79375 28.360625 -139.5875 27.72125 -139.375 27.0625 C-138 25 -138 25 -134.9375 24.375 C-133.968125 24.25125 -132.99875 24.1275 -132 24 C-131.67 23.34 -131.34 22.68 -131 22 C-129.34357091 21.25629714 -127.68171655 20.52258369 -125.99609375 19.84765625 C-124.07466244 19.03170597 -122.32133756 18.07878245 -120.5 17.0625 C-115.96892247 14.72993346 -111.11790431 13.58000309 -106.19140625 12.39477539 C-102.96426735 11.60417616 -100.80288427 10.86858952 -98 9 C-96.18164062 8.36157227 -96.18164062 8.36157227 -94.15625 7.81640625 C-93.4034375 7.61080078 -92.650625 7.40519531 -91.875 7.19335938 C-91.09125 6.98517578 -90.3075 6.77699219 -89.5 6.5625 C-88.7471875 6.35818359 -87.994375 6.15386719 -87.21875 5.94335938 C-85.64680868 5.51718272 -84.07367554 5.09538298 -82.49951172 4.67749023 C-80.78774437 4.21351735 -79.08112043 3.73025996 -77.37939453 3.23071289 C-70.58494182 1.26544096 -63.90006346 0.09850978 -56.875 -0.6875 C-55.75480469 -0.81342529 -54.63460937 -0.93935059 -53.48046875 -1.0690918 C-35.64991115 -2.91229823 -17.71929776 -2.79378816 0 0 Z " fill="#CD0003" transform="translate(352,151)"/>
<path d="M0 0 C6.81486456 2.88321193 11.44400135 8.39385982 16 14 C15.67 14.66 15.34 15.32 15 16 C14.51789063 15.57847656 14.03578125 15.15695312 13.5390625 14.72265625 C12.90742188 14.17480469 12.27578125 13.62695312 11.625 13.0625 C10.68527344 12.24458984 10.68527344 12.24458984 9.7265625 11.41015625 C8.04367666 9.93041376 8.04367666 9.93041376 6 9 C6 8.01 6 7.02 6 6 C5.01 6 4.02 6 3 6 C3 5.34 3 4.68 3 4 C2.34 4 1.68 4 1 4 C0.67 2.68 0.34 1.36 0 0 Z " fill="#FA0014" transform="translate(179,278)"/>
<path d="M0 0 C0.99 0.66 1.98 1.32 3 2 C1.35 2 -0.3 2 -2 2 C-1.34 1.34 -0.68 0.68 0 0 Z " fill="#F10010" transform="translate(796,437)"/>
<path d="M0 0 C0.33 0.66 0.66 1.32 1 2 C0.34 1.67 -0.32 1.34 -1 1 C-0.67 0.67 -0.34 0.34 0 0 Z " fill="#588157" transform="translate(511,811)"/>
<path d="M0 0 C0.99 0.495 0.99 0.495 2 1 C1.01 1.495 1.01 1.495 0 2 C0 1.34 0 0.68 0 0 Z " fill="#588157" transform="translate(684,447)"/>
<path d="" fill="#588157" transform="translate(0,0)"/>
<path d="M0 0 C2 1 2 1 2 1 Z " fill="#CD0003" transform="translate(223,314)"/>
<path d="M0 0 C2 1 2 1 2 1 Z " fill="#FF0016" transform="translate(204,307)"/>
<path d="M0 0 C2 1 2 1 2 1 Z " fill="#F20011" transform="translate(202,304)"/>
<path d="M0 0 C2 1 2 1 2 1 Z " fill="#CD0003" transform="translate(612,271)"/>
<path d="" fill="#588157" transform="translate(0,0)"/>
<path d="" fill="#588157" transform="translate(0,0)"/>
<path d="" fill="#588157" transform="translate(0,0)"/>
<path d="" fill="#588157" transform="translate(0,0)"/>
<path d="" fill="#588157" transform="translate(0,0)"/>
<path d="" fill="#588157" transform="translate(0,0)"/>
<path d="" fill="#588157" transform="translate(0,0)"/>
<path d="" fill="#FF0016" transform="translate(0,0)"/>
<path d="" fill="#CD0003" transform="translate(0,0)"/>
<path d="" fill="#CD0003" transform="translate(0,0)"/>
<path d="" fill="#588157" transform="translate(0,0)"/>
<path d="" fill="#588157" transform="translate(0,0)"/>
<path d="" fill="#CD0003" transform="translate(0,0)"/>
<path d="" fill="#588157" transform="translate(0,0)"/>
<path d="" fill="#588157" transform="translate(0,0)"/>
<path d="" fill="#588157" transform="translate(0,0)"/>
<path d="" fill="#FF0016" transform="translate(0,0)"/>
<path d="" fill="#FF0016" transform="translate(0,0)"/>
<path d="" fill="#FF0016" transform="translate(0,0)"/>
<path d="" fill="#FF0016" transform="translate(0,0)"/>
<path d="" fill="#FF0016" transform="translate(0,0)"/>
<path d="" fill="#E5000C" transform="translate(0,0)"/>
</svg>
